<svg width="792" height="70" viewBox="0 0 792 70" fill="none" xmlns="http://www.w3.org/2000/svg">
<path d="M12.16 15H14V29H12.16V22.7H5.36V29H3.5V15H5.36V20.94H12.16V15ZM25.2561 27.74C24.2294 28.7533 22.9828 29.26 21.5161 29.26C20.0494 29.26 18.8028 28.7533 17.7761 27.74C16.7628 26.7267 16.2561 25.48 16.2561 24C16.2561 22.52 16.7628 21.2733 17.7761 20.26C18.8028 19.2467 20.0494 18.74 21.5161 18.74C22.9828 18.74 24.2294 19.2467 25.2561 20.26C26.2828 21.2733 26.7961 22.52 26.7961 24C26.7961 25.48 26.2828 26.7267 25.2561 27.74ZM21.5161 27.56C22.5161 27.56 23.3561 27.22 24.0361 26.54C24.7161 25.86 25.0561 25.0133 25.0561 24C25.0561 22.9867 24.7161 22.14 24.0361 21.46C23.3561 20.78 22.5161 20.44 21.5161 20.44C20.5294 20.44 19.6961 20.78 19.0161 21.46C18.3361 22.14 17.9961 22.9867 17.9961 24C17.9961 25.0133 18.3361 25.86 19.0161 26.54C19.6961 27.22 20.5294 27.56 21.5161 27.56ZM40.2367 19H42.0567L38.9567 29H37.1767L34.8367 21.6L32.4967 29H30.7167L27.6167 19H29.4367L31.6367 26.6L33.9967 19H35.6767L38.0367 26.62L40.2367 19ZM50.3473 21.7C50.3473 22.0867 50.5407 22.4 50.9273 22.64C51.314 22.8667 51.7807 23.0533 52.3273 23.2C52.874 23.3333 53.4207 23.4933 53.9673 23.68C54.514 23.8533 54.9807 24.16 55.3673 24.6C55.754 25.0267 55.9473 25.58 55.9473 26.26C55.9473 27.1667 55.594 27.8933 54.8873 28.44C54.194 28.9867 53.3007 29.26 52.2073 29.26C51.234 29.26 50.4007 29.0467 49.7073 28.62C49.014 28.1933 48.5207 27.6267 48.2273 26.92L49.7273 26.06C49.8873 26.54 50.1873 26.92 50.6273 27.2C51.0673 27.48 51.594 27.62 52.2073 27.62C52.7807 27.62 53.254 27.5133 53.6273 27.3C54.0007 27.0733 54.1873 26.7267 54.1873 26.26C54.1873 25.8733 53.994 25.5667 53.6073 25.34C53.2207 25.1 52.754 24.9133 52.2073 24.78C51.6607 24.6333 51.114 24.4667 50.5673 24.28C50.0207 24.0933 49.554 23.7867 49.1673 23.36C48.7807 22.9333 48.5873 22.3867 48.5873 21.72C48.5873 20.8533 48.9207 20.14 49.5873 19.58C50.2673 19.02 51.114 18.74 52.1273 18.74C52.9407 18.74 53.6607 18.9267 54.2873 19.3C54.9273 19.66 55.4073 20.1667 55.7273 20.82L54.2673 21.64C53.9073 20.7867 53.194 20.36 52.1273 20.36C51.634 20.36 51.214 20.48 50.8673 20.72C50.5207 20.9467 50.3473 21.2733 50.3473 21.7ZM58.9541 24.8C59.1274 25.6933 59.5341 26.3867 60.1741 26.88C60.8274 27.3733 61.6274 27.62 62.5741 27.62C63.8941 27.62 64.8541 27.1333 65.4541 26.16L66.9341 27C65.9607 28.5067 64.4941 29.26 62.5341 29.26C60.9474 29.26 59.6541 28.7667 58.6541 27.78C57.6674 26.78 57.1741 25.52 57.1741 24C57.1741 22.4933 57.6607 21.24 58.6341 20.24C59.6074 19.24 60.8674 18.74 62.4141 18.74C63.8807 18.74 65.0741 19.26 65.9941 20.3C66.9274 21.3267 67.3941 22.5667 67.3941 24.02C67.3941 24.2733 67.3741 24.5333 67.3341 24.8H58.9541ZM62.4141 20.38C61.4807 20.38 60.7074 20.6467 60.0941 21.18C59.4807 21.7 59.1007 22.4 58.9541 23.28H65.6341C65.4874 22.3333 65.1141 21.6133 64.5141 21.12C63.9141 20.6267 63.2141 20.38 62.4141 20.38ZM74.0747 29.26C72.568 29.26 71.3147 28.76 70.3147 27.76C69.3147 26.7467 68.8147 25.4933 68.8147 24C68.8147 22.5067 69.3147 21.26 70.3147 20.26C71.3147 19.2467 72.568 18.74 74.0747 18.74C75.0614 18.74 75.948 18.98 76.7347 19.46C77.5214 19.9267 78.108 20.56 78.4947 21.36L77.0347 22.2C76.7814 21.6667 76.388 21.24 75.8547 20.92C75.3347 20.6 74.7414 20.44 74.0747 20.44C73.0747 20.44 72.2347 20.78 71.5547 21.46C70.888 22.14 70.5547 22.9867 70.5547 24C70.5547 25 70.888 25.84 71.5547 26.52C72.2347 27.2 73.0747 27.54 74.0747 27.54C74.7414 27.54 75.3414 27.3867 75.8747 27.08C76.408 26.76 76.8147 26.3333 77.0947 25.8L78.5747 26.66C78.148 27.4467 77.5347 28.08 76.7347 28.56C75.9347 29.0267 75.048 29.26 74.0747 29.26ZM87.2122 19H88.9522V29H87.2122V27.56C86.5055 28.6933 85.4255 29.26 83.9722 29.26C82.7989 29.26 81.8589 28.8933 81.1522 28.16C80.4455 27.4133 80.0922 26.4067 80.0922 25.14V19H81.8322V25.04C81.8322 25.8533 82.0522 26.4867 82.4922 26.94C82.9322 27.38 83.5389 27.6 84.3122 27.6C85.1789 27.6 85.8789 27.3333 86.4122 26.8C86.9455 26.2533 87.2122 25.42 87.2122 24.3V19ZM93.3413 20.68C93.9146 19.44 94.9546 18.82 96.4613 18.82V20.64C95.6079 20.6 94.8746 20.8267 94.2613 21.32C93.6479 21.8133 93.3413 22.6067 93.3413 23.7V29H91.6012V19H93.3413V20.68ZM98.8369 24.8C99.0102 25.6933 99.4169 26.3867 100.057 26.88C100.71 27.3733 101.51 27.62 102.457 27.62C103.777 27.62 104.737 27.1333 105.337 26.16L106.817 27C105.844 28.5067 104.377 29.26 102.417 29.26C100.83 29.26 99.5369 28.7667 98.5369 27.78C97.5502 26.78 97.0569 25.52 97.0569 24C97.0569 22.4933 97.5435 21.24 98.5169 20.24C99.4902 19.24 100.75 18.74 102.297 18.74C103.764 18.74 104.957 19.26 105.877 20.3C106.81 21.3267 107.277 22.5667 107.277 24.02C107.277 24.2733 107.257 24.5333 107.217 24.8H98.8369ZM102.297 20.38C101.364 20.38 100.59 20.6467 99.9769 21.18C99.3635 21.7 98.9835 22.4 98.8369 23.28H105.517C105.37 22.3333 104.997 21.6133 104.397 21.12C103.797 20.6267 103.097 20.38 102.297 20.38ZM115.157 17.18C114.824 17.18 114.544 17.0667 114.317 16.84C114.09 16.6133 113.977 16.34 113.977 16.02C113.977 15.7 114.09 15.4267 114.317 15.2C114.544 14.96 114.824 14.84 115.157 14.84C115.477 14.84 115.75 14.96 115.977 15.2C116.204 15.4267 116.317 15.7 116.317 16.02C116.317 16.34 116.204 16.6133 115.977 16.84C115.75 17.0667 115.477 17.18 115.157 17.18ZM114.277 29V19H116.017V29H114.277ZM120.152 21.7C120.152 22.0867 120.345 22.4 120.732 22.64C121.119 22.8667 121.585 23.0533 122.132 23.2C122.679 23.3333 123.225 23.4933 123.772 23.68C124.319 23.8533 124.785 24.16 125.172 24.6C125.559 25.0267 125.752 25.58 125.752 26.26C125.752 27.1667 125.399 27.8933 124.692 28.44C123.999 28.9867 123.105 29.26 122.012 29.26C121.039 29.26 120.205 29.0467 119.512 28.62C118.819 28.1933 118.325 27.6267 118.032 26.92L119.532 26.06C119.692 26.54 119.992 26.92 120.432 27.2C120.872 27.48 121.399 27.62 122.012 27.62C122.585 27.62 123.059 27.5133 123.432 27.3C123.805 27.0733 123.992 26.7267 123.992 26.26C123.992 25.8733 123.799 25.5667 123.412 25.34C123.025 25.1 122.559 24.9133 122.012 24.78C121.465 24.6333 120.919 24.4667 120.372 24.28C119.825 24.0933 119.359 23.7867 118.972 23.36C118.585 22.9333 118.392 22.3867 118.392 21.72C118.392 20.8533 118.725 20.14 119.392 19.58C120.072 19.02 120.919 18.74 121.932 18.74C122.745 18.74 123.465 18.9267 124.092 19.3C124.732 19.66 125.212 20.1667 125.532 20.82L124.072 21.64C123.712 20.7867 122.999 20.36 121.932 20.36C121.439 20.36 121.019 20.48 120.672 20.72C120.325 20.9467 120.152 21.2733 120.152 21.7ZM138.252 20.68H135.592V26.1C135.592 26.5933 135.686 26.9467 135.872 27.16C136.072 27.36 136.372 27.4667 136.772 27.48C137.172 27.48 137.666 27.4667 138.252 27.44V29C136.732 29.2 135.619 29.08 134.912 28.64C134.206 28.1867 133.852 27.34 133.852 26.1V20.68H131.872V19H133.852V16.72L135.592 16.2V19H138.252V20.68ZM145.292 18.74C146.466 18.74 147.406 19.1133 148.112 19.86C148.819 20.5933 149.172 21.5933 149.172 22.86V29H147.432V22.96C147.432 22.1467 147.212 21.52 146.772 21.08C146.332 20.6267 145.726 20.4 144.952 20.4C144.086 20.4 143.386 20.6733 142.852 21.22C142.319 21.7533 142.052 22.58 142.052 23.7V29H140.312V15H142.052V20.44C142.759 19.3067 143.839 18.74 145.292 18.74ZM152.821 24.8C152.995 25.6933 153.401 26.3867 154.041 26.88C154.695 27.3733 155.495 27.62 156.441 27.62C157.761 27.62 158.721 27.1333 159.321 26.16L160.801 27C159.828 28.5067 158.361 29.26 156.401 29.26C154.815 29.26 153.521 28.7667 152.521 27.78C151.535 26.78 151.041 25.52 151.041 24C151.041 22.4933 151.528 21.24 152.501 20.24C153.475 19.24 154.735 18.74 156.281 18.74C157.748 18.74 158.941 19.26 159.861 20.3C160.795 21.3267 161.261 22.5667 161.261 24.02C161.261 24.2733 161.241 24.5333 161.201 24.8H152.821ZM156.281 20.38C155.348 20.38 154.575 20.6467 153.961 21.18C153.348 21.7 152.968 22.4 152.821 23.28H159.501C159.355 22.3333 158.981 21.6133 158.381 21.12C157.781 20.6267 157.081 20.38 156.281 20.38ZM177.301 27.92C176.328 28.8133 175.068 29.26 173.521 29.26C171.975 29.26 170.708 28.8133 169.721 27.92C168.748 27.0133 168.261 25.8067 168.261 24.3V15H170.121V24.22C170.121 25.2067 170.415 25.9933 171.001 26.58C171.588 27.1533 172.428 27.44 173.521 27.44C174.615 27.44 175.455 27.1533 176.041 26.58C176.628 25.9933 176.921 25.2067 176.921 24.22V15H178.761V24.3C178.761 25.8067 178.275 27.0133 177.301 27.92ZM189.905 29L186.765 23.64H183.465V29H181.605V15H187.205C188.405 15 189.432 15.4267 190.285 16.28C191.139 17.12 191.565 18.14 191.565 19.34C191.565 20.2467 191.292 21.0733 190.745 21.82C190.212 22.5667 189.519 23.0933 188.665 23.4L191.965 29H189.905ZM183.465 16.74V21.96H187.205C187.899 21.96 188.485 21.7067 188.965 21.2C189.459 20.68 189.705 20.06 189.705 19.34C189.705 18.62 189.459 18.0067 188.965 17.5C188.485 16.9933 187.899 16.74 187.205 16.74H183.465ZM195.692 27.24H201.732V29H193.832V15H195.692V27.24ZM209.918 21.7C209.918 22.0867 210.111 22.4 210.498 22.64C210.884 22.8667 211.351 23.0533 211.898 23.2C212.444 23.3333 212.991 23.4933 213.538 23.68C214.084 23.8533 214.551 24.16 214.938 24.6C215.324 25.0267 215.518 25.58 215.518 26.26C215.518 27.1667 215.164 27.8933 214.458 28.44C213.764 28.9867 212.871 29.26 211.778 29.26C210.804 29.26 209.971 29.0467 209.278 28.62C208.584 28.1933 208.091 27.6267 207.798 26.92L209.298 26.06C209.458 26.54 209.758 26.92 210.198 27.2C210.638 27.48 211.164 27.62 211.778 27.62C212.351 27.62 212.824 27.5133 213.198 27.3C213.571 27.0733 213.758 26.7267 213.758 26.26C213.758 25.8733 213.564 25.5667 213.178 25.34C212.791 25.1 212.324 24.9133 211.778 24.78C211.231 24.6333 210.684 24.4667 210.138 24.28C209.591 24.0933 209.124 23.7867 208.738 23.36C208.351 22.9333 208.158 22.3867 208.158 21.72C208.158 20.8533 208.491 20.14 209.158 19.58C209.838 19.02 210.684 18.74 211.698 18.74C212.511 18.74 213.231 18.9267 213.858 19.3C214.498 19.66 214.978 20.1667 215.298 20.82L213.838 21.64C213.478 20.7867 212.764 20.36 211.698 20.36C211.204 20.36 210.784 20.48 210.438 20.72C210.091 20.9467 209.918 21.2733 209.918 21.7ZM222.46 18.74C223.633 18.74 224.573 19.1133 225.28 19.86C225.987 20.5933 226.34 21.5933 226.34 22.86V29H224.6V22.96C224.6 22.1467 224.38 21.52 223.94 21.08C223.5 20.6267 222.893 20.4 222.12 20.4C221.253 20.4 220.553 20.6733 220.02 21.22C219.487 21.7533 219.22 22.58 219.22 23.7V29H217.48V15H219.22V20.44C219.927 19.3067 221.007 18.74 222.46 18.74ZM237.209 27.74C236.183 28.7533 234.936 29.26 233.469 29.26C232.003 29.26 230.756 28.7533 229.729 27.74C228.716 26.7267 228.209 25.48 228.209 24C228.209 22.52 228.716 21.2733 229.729 20.26C230.756 19.2467 232.003 18.74 233.469 18.74C234.936 18.74 236.183 19.2467 237.209 20.26C238.236 21.2733 238.749 22.52 238.749 24C238.749 25.48 238.236 26.7267 237.209 27.74ZM233.469 27.56C234.469 27.56 235.309 27.22 235.989 26.54C236.669 25.86 237.009 25.0133 237.009 24C237.009 22.9867 236.669 22.14 235.989 21.46C235.309 20.78 234.469 20.44 233.469 20.44C232.483 20.44 231.649 20.78 230.969 21.46C230.289 22.14 229.949 22.9867 229.949 24C229.949 25.0133 230.289 25.86 230.969 26.54C231.649 27.22 232.483 27.56 233.469 27.56ZM242.54 20.68C243.114 19.44 244.154 18.82 245.66 18.82V20.64C244.807 20.6 244.074 20.8267 243.46 21.32C242.847 21.8133 242.54 22.6067 242.54 23.7V29H240.8V19H242.54V20.68ZM253.037 20.68H250.377V26.1C250.377 26.5933 250.471 26.9467 250.657 27.16C250.857 27.36 251.157 27.4667 251.557 27.48C251.957 27.48 252.451 27.4667 253.037 27.44V29C251.517 29.2 250.404 29.08 249.697 28.64C248.991 28.1867 248.637 27.34 248.637 26.1V20.68H246.657V19H248.637V16.72L250.377 16.2V19H253.037V20.68ZM255.81 24.8C255.983 25.6933 256.39 26.3867 257.03 26.88C257.683 27.3733 258.483 27.62 259.43 27.62C260.75 27.62 261.71 27.1333 262.31 26.16L263.79 27C262.816 28.5067 261.35 29.26 259.39 29.26C257.803 29.26 256.51 28.7667 255.51 27.78C254.523 26.78 254.03 25.52 254.03 24C254.03 22.4933 254.516 21.24 255.49 20.24C256.463 19.24 257.723 18.74 259.27 18.74C260.736 18.74 261.93 19.26 262.85 20.3C263.783 21.3267 264.25 22.5667 264.25 24.02C264.25 24.2733 264.23 24.5333 264.19 24.8H255.81ZM259.27 20.38C258.336 20.38 257.563 20.6467 256.95 21.18C256.336 21.7 255.956 22.4 255.81 23.28H262.49C262.343 22.3333 261.97 21.6133 261.37 21.12C260.77 20.6267 260.07 20.38 259.27 20.38ZM271.23 18.74C272.403 18.74 273.343 19.1133 274.05 19.86C274.756 20.5933 275.11 21.5933 275.11 22.86V29H273.37V22.96C273.37 22.1467 273.15 21.52 272.71 21.08C272.27 20.6267 271.663 20.4 270.89 20.4C270.023 20.4 269.323 20.6733 268.79 21.22C268.256 21.7533 267.99 22.58 267.99 23.7V29H266.25V19H267.99V20.44C268.696 19.3067 269.776 18.74 271.23 18.74ZM278.419 17.18C278.085 17.18 277.805 17.0667 277.579 16.84C277.352 16.6133 277.239 16.34 277.239 16.02C277.239 15.7 277.352 15.4267 277.579 15.2C277.805 14.96 278.085 14.84 278.419 14.84C278.739 14.84 279.012 14.96 279.239 15.2C279.465 15.4267 279.579 15.7 279.579 16.02C279.579 16.34 279.465 16.6133 279.239 16.84C279.012 17.0667 278.739 17.18 278.419 17.18ZM277.539 29V19H279.279V29H277.539ZM286.913 18.74C288.087 18.74 289.027 19.1133 289.733 19.86C290.44 20.5933 290.793 21.5933 290.793 22.86V29H289.053V22.96C289.053 22.1467 288.833 21.52 288.393 21.08C287.953 20.6267 287.347 20.4 286.573 20.4C285.707 20.4 285.007 20.6733 284.473 21.22C283.94 21.7533 283.673 22.58 283.673 23.7V29H281.933V19H283.673V20.44C284.38 19.3067 285.46 18.74 286.913 18.74ZM301.522 19H303.242V28.58C303.242 30.06 302.742 31.2067 301.742 32.02C300.742 32.8467 299.542 33.26 298.142 33.26C297.022 33.26 296.056 33.0467 295.242 32.62C294.429 32.2067 293.816 31.6067 293.402 30.82L294.922 29.96C295.469 31.08 296.556 31.64 298.182 31.64C299.222 31.64 300.036 31.3667 300.622 30.82C301.222 30.2733 301.522 29.5267 301.522 28.58V27.16C300.642 28.4933 299.389 29.16 297.762 29.16C296.336 29.16 295.129 28.6533 294.142 27.64C293.156 26.6267 292.662 25.3933 292.662 23.94C292.662 22.4867 293.156 21.26 294.142 20.26C295.129 19.2467 296.336 18.74 297.762 18.74C299.402 18.74 300.656 19.4 301.522 20.72V19ZM295.422 26.48C296.102 27.16 296.949 27.5 297.962 27.5C298.976 27.5 299.822 27.16 300.502 26.48C301.182 25.8 301.522 24.9533 301.522 23.94C301.522 22.94 301.182 22.1 300.502 21.42C299.822 20.74 298.976 20.4 297.962 20.4C296.949 20.4 296.102 20.74 295.422 21.42C294.742 22.1 294.402 22.94 294.402 23.94C294.402 24.9533 294.742 25.8 295.422 26.48ZM312.379 21.7C312.379 22.0867 312.572 22.4 312.959 22.64C313.345 22.8667 313.812 23.0533 314.359 23.2C314.905 23.3333 315.452 23.4933 315.999 23.68C316.545 23.8533 317.012 24.16 317.399 24.6C317.785 25.0267 317.979 25.58 317.979 26.26C317.979 27.1667 317.625 27.8933 316.919 28.44C316.225 28.9867 315.332 29.26 314.239 29.26C313.265 29.26 312.432 29.0467 311.739 28.62C311.045 28.1933 310.552 27.6267 310.259 26.92L311.759 26.06C311.919 26.54 312.219 26.92 312.659 27.2C313.099 27.48 313.625 27.62 314.239 27.62C314.812 27.62 315.285 27.5133 315.659 27.3C316.032 27.0733 316.219 26.7267 316.219 26.26C316.219 25.8733 316.025 25.5667 315.639 25.34C315.252 25.1 314.785 24.9133 314.239 24.78C313.692 24.6333 313.145 24.4667 312.599 24.28C312.052 24.0933 311.585 23.7867 311.199 23.36C310.812 22.9333 310.619 22.3867 310.619 21.72C310.619 20.8533 310.952 20.14 311.619 19.58C312.299 19.02 313.145 18.74 314.159 18.74C314.972 18.74 315.692 18.9267 316.319 19.3C316.959 19.66 317.439 20.1667 317.759 20.82L316.299 21.64C315.939 20.7867 315.225 20.36 314.159 20.36C313.665 20.36 313.245 20.48 312.899 20.72C312.552 20.9467 312.379 21.2733 312.379 21.7ZM320.985 24.8C321.159 25.6933 321.565 26.3867 322.205 26.88C322.859 27.3733 323.659 27.62 324.605 27.62C325.925 27.62 326.885 27.1333 327.485 26.16L328.965 27C327.992 28.5067 326.525 29.26 324.565 29.26C322.979 29.26 321.685 28.7667 320.685 27.78C319.699 26.78 319.205 25.52 319.205 24C319.205 22.4933 319.692 21.24 320.665 20.24C321.639 19.24 322.899 18.74 324.445 18.74C325.912 18.74 327.105 19.26 328.025 20.3C328.959 21.3267 329.425 22.5667 329.425 24.02C329.425 24.2733 329.405 24.5333 329.365 24.8H320.985ZM324.445 20.38C323.512 20.38 322.739 20.6467 322.125 21.18C321.512 21.7 321.132 22.4 320.985 23.28H327.665C327.519 22.3333 327.145 21.6133 326.545 21.12C325.945 20.6267 325.245 20.38 324.445 20.38ZM333.165 20.68C333.739 19.44 334.779 18.82 336.285 18.82V20.64C335.432 20.6 334.699 20.8267 334.085 21.32C333.472 21.8133 333.165 22.6067 333.165 23.7V29H331.425V19H333.165V20.68ZM344.988 19H346.868L342.868 29H340.828L336.828 19H338.708L341.848 27.14L344.988 19ZM349.22 17.18C348.886 17.18 348.606 17.0667 348.38 16.84C348.153 16.6133 348.04 16.34 348.04 16.02C348.04 15.7 348.153 15.4267 348.38 15.2C348.606 14.96 348.886 14.84 349.22 14.84C349.54 14.84 349.813 14.96 350.04 15.2C350.266 15.4267 350.38 15.7 350.38 16.02C350.38 16.34 350.266 16.6133 350.04 16.84C349.813 17.0667 349.54 17.18 349.22 17.18ZM348.34 29V19H350.08V29H348.34ZM357.434 29.26C355.927 29.26 354.674 28.76 353.674 27.76C352.674 26.7467 352.174 25.4933 352.174 24C352.174 22.5067 352.674 21.26 353.674 20.26C354.674 19.2467 355.927 18.74 357.434 18.74C358.421 18.74 359.307 18.98 360.094 19.46C360.881 19.9267 361.467 20.56 361.854 21.36L360.394 22.2C360.141 21.6667 359.747 21.24 359.214 20.92C358.694 20.6 358.101 20.44 357.434 20.44C356.434 20.44 355.594 20.78 354.914 21.46C354.247 22.14 353.914 22.9867 353.914 24C353.914 25 354.247 25.84 354.914 26.52C355.594 27.2 356.434 27.54 357.434 27.54C358.101 27.54 358.701 27.3867 359.234 27.08C359.767 26.76 360.174 26.3333 360.454 25.8L361.934 26.66C361.507 27.4467 360.894 28.08 360.094 28.56C359.294 29.0267 358.407 29.26 357.434 29.26ZM364.735 24.8C364.909 25.6933 365.315 26.3867 365.955 26.88C366.609 27.3733 367.409 27.62 368.355 27.62C369.675 27.62 370.635 27.1333 371.235 26.16L372.715 27C371.742 28.5067 370.275 29.26 368.315 29.26C366.729 29.26 365.435 28.7667 364.435 27.78C363.449 26.78 362.955 25.52 362.955 24C362.955 22.4933 363.442 21.24 364.415 20.24C365.389 19.24 366.649 18.74 368.195 18.74C369.662 18.74 370.855 19.26 371.775 20.3C372.709 21.3267 373.175 22.5667 373.175 24.02C373.175 24.2733 373.155 24.5333 373.115 24.8H364.735ZM368.195 20.38C367.262 20.38 366.489 20.6467 365.875 21.18C365.262 21.7 364.882 22.4 364.735 23.28H371.415C371.269 22.3333 370.895 21.6133 370.295 21.12C369.695 20.6267 368.995 20.38 368.195 20.38ZM376.842 24.9C376.842 24.3133 376.969 23.7667 377.222 23.26C377.476 22.7533 377.782 22.32 378.142 21.96C378.502 21.6 378.862 21.26 379.222 20.94C379.582 20.6067 379.889 20.2467 380.142 19.86C380.396 19.46 380.522 19.04 380.522 18.6C380.522 17.9333 380.289 17.4267 379.822 17.08C379.369 16.72 378.776 16.54 378.042 16.54C376.576 16.54 375.636 17.1867 375.222 18.48L373.642 17.6C373.976 16.6667 374.542 15.96 375.342 15.48C376.142 14.9867 377.049 14.74 378.062 14.74C379.249 14.74 380.262 15.0733 381.102 15.74C381.956 16.4067 382.382 17.3333 382.382 18.52C382.382 19.08 382.256 19.6067 382.002 20.1C381.749 20.5933 381.442 21.02 381.082 21.38C380.722 21.74 380.362 22.0933 380.002 22.44C379.642 22.7733 379.336 23.1533 379.082 23.58C378.829 23.9933 378.702 24.4333 378.702 24.9H376.842ZM377.762 29.22C377.402 29.22 377.096 29.0933 376.842 28.84C376.589 28.5867 376.462 28.28 376.462 27.92C376.462 27.56 376.589 27.2533 376.842 27C377.096 26.7467 377.402 26.62 377.762 26.62C378.136 26.62 378.442 26.7467 378.682 27C378.936 27.2533 379.062 27.56 379.062 27.92C379.062 28.28 378.936 28.5867 378.682 28.84C378.442 29.0933 378.136 29.22 377.762 29.22ZM399.243 29L398.103 25.86H391.803L390.663 29H388.683L393.903 15H396.003L401.223 29H399.243ZM392.443 24.12H397.463L394.943 17.22L392.443 24.12ZM404.435 20.68C405.008 19.44 406.048 18.82 407.555 18.82V20.64C406.702 20.6 405.968 20.8267 405.355 21.32C404.742 21.8133 404.435 22.6067 404.435 23.7V29H402.695V19H404.435V20.68ZM409.931 24.8C410.104 25.6933 410.511 26.3867 411.151 26.88C411.804 27.3733 412.604 27.62 413.551 27.62C414.871 27.62 415.831 27.1333 416.431 26.16L417.911 27C416.937 28.5067 415.471 29.26 413.511 29.26C411.924 29.26 410.631 28.7667 409.631 27.78C408.644 26.78 408.151 25.52 408.151 24C408.151 22.4933 408.637 21.24 409.611 20.24C410.584 19.24 411.844 18.74 413.391 18.74C414.857 18.74 416.051 19.26 416.971 20.3C417.904 21.3267 418.371 22.5667 418.371 24.02C418.371 24.2733 418.351 24.5333 418.311 24.8H409.931ZM413.391 20.38C412.457 20.38 411.684 20.6467 411.071 21.18C410.457 21.7 410.077 22.4 409.931 23.28H416.611C416.464 22.3333 416.091 21.6133 415.491 21.12C414.891 20.6267 414.191 20.38 413.391 20.38ZM430.811 20.68H428.151V26.1C428.151 26.5933 428.244 26.9467 428.431 27.16C428.631 27.36 428.931 27.4667 429.331 27.48C429.731 27.48 430.224 27.4667 430.811 27.44V29C429.291 29.2 428.177 29.08 427.471 28.64C426.764 28.1867 426.411 27.34 426.411 26.1V20.68H424.431V19H426.411V16.72L428.151 16.2V19H430.811V20.68ZM437.851 18.74C439.024 18.74 439.964 19.1133 440.671 19.86C441.377 20.5933 441.731 21.5933 441.731 22.86V29H439.991V22.96C439.991 22.1467 439.771 21.52 439.331 21.08C438.891 20.6267 438.284 20.4 437.511 20.4C436.644 20.4 435.944 20.6733 435.411 21.22C434.877 21.7533 434.611 22.58 434.611 23.7V29H432.871V15H434.611V20.44C435.317 19.3067 436.397 18.74 437.851 18.74ZM445.38 24.8C445.553 25.6933 445.96 26.3867 446.6 26.88C447.253 27.3733 448.053 27.62 449 27.62C450.32 27.62 451.28 27.1333 451.88 26.16L453.36 27C452.387 28.5067 450.92 29.26 448.96 29.26C447.373 29.26 446.08 28.7667 445.08 27.78C444.093 26.78 443.6 25.52 443.6 24C443.6 22.4933 444.087 21.24 445.06 20.24C446.033 19.24 447.293 18.74 448.84 18.74C450.307 18.74 451.5 19.26 452.42 20.3C453.353 21.3267 453.82 22.5667 453.82 24.02C453.82 24.2733 453.8 24.5333 453.76 24.8H445.38ZM448.84 20.38C447.907 20.38 447.133 20.6467 446.52 21.18C445.907 21.7 445.527 22.4 445.38 23.28H452.06C451.913 22.3333 451.54 21.6133 450.94 21.12C450.34 20.6267 449.64 20.38 448.84 20.38ZM462.32 21.7C462.32 22.0867 462.513 22.4 462.9 22.64C463.287 22.8667 463.753 23.0533 464.3 23.2C464.847 23.3333 465.393 23.4933 465.94 23.68C466.487 23.8533 466.953 24.16 467.34 24.6C467.727 25.0267 467.92 25.58 467.92 26.26C467.92 27.1667 467.567 27.8933 466.86 28.44C466.167 28.9867 465.273 29.26 464.18 29.26C463.207 29.26 462.373 29.0467 461.68 28.62C460.987 28.1933 460.493 27.6267 460.2 26.92L461.7 26.06C461.86 26.54 462.16 26.92 462.6 27.2C463.04 27.48 463.567 27.62 464.18 27.62C464.753 27.62 465.227 27.5133 465.6 27.3C465.973 27.0733 466.16 26.7267 466.16 26.26C466.16 25.8733 465.967 25.5667 465.58 25.34C465.193 25.1 464.727 24.9133 464.18 24.78C463.633 24.6333 463.087 24.4667 462.54 24.28C461.993 24.0933 461.527 23.7867 461.14 23.36C460.753 22.9333 460.56 22.3867 460.56 21.72C460.56 20.8533 460.893 20.14 461.56 19.58C462.24 19.02 463.087 18.74 464.1 18.74C464.913 18.74 465.633 18.9267 466.26 19.3C466.9 19.66 467.38 20.1667 467.7 20.82L466.24 21.64C465.88 20.7867 465.167 20.36 464.1 20.36C463.607 20.36 463.187 20.48 462.84 20.72C462.493 20.9467 462.32 21.2733 462.32 21.7ZM474.863 18.74C476.036 18.74 476.976 19.1133 477.683 19.86C478.389 20.5933 478.743 21.5933 478.743 22.86V29H477.003V22.96C477.003 22.1467 476.783 21.52 476.343 21.08C475.903 20.6267 475.296 20.4 474.523 20.4C473.656 20.4 472.956 20.6733 472.423 21.22C471.889 21.7533 471.623 22.58 471.623 23.7V29H469.882V15H471.623V20.44C472.329 19.3067 473.409 18.74 474.863 18.74ZM489.612 27.74C488.585 28.7533 487.338 29.26 485.872 29.26C484.405 29.26 483.158 28.7533 482.132 27.74C481.118 26.7267 480.612 25.48 480.612 24C480.612 22.52 481.118 21.2733 482.132 20.26C483.158 19.2467 484.405 18.74 485.872 18.74C487.338 18.74 488.585 19.2467 489.612 20.26C490.638 21.2733 491.152 22.52 491.152 24C491.152 25.48 490.638 26.7267 489.612 27.74ZM485.872 27.56C486.872 27.56 487.712 27.22 488.392 26.54C489.072 25.86 489.412 25.0133 489.412 24C489.412 22.9867 489.072 22.14 488.392 21.46C487.712 20.78 486.872 20.44 485.872 20.44C484.885 20.44 484.052 20.78 483.372 21.46C482.692 22.14 482.352 22.9867 482.352 24C482.352 25.0133 482.692 25.86 483.372 26.54C484.052 27.22 484.885 27.56 485.872 27.56ZM494.943 20.68C495.516 19.44 496.556 18.82 498.063 18.82V20.64C497.209 20.6 496.476 20.8267 495.863 21.32C495.249 21.8133 494.943 22.6067 494.943 23.7V29H493.203V19H494.943V20.68ZM505.44 20.68H502.78V26.1C502.78 26.5933 502.873 26.9467 503.06 27.16C503.26 27.36 503.56 27.4667 503.96 27.48C504.36 27.48 504.853 27.4667 505.44 27.44V29C503.92 29.2 502.806 29.08 502.1 28.64C501.393 28.1867 501.04 27.34 501.04 26.1V20.68H499.06V19H501.04V16.72L502.78 16.2V19H505.44V20.68ZM508.212 24.8C508.385 25.6933 508.792 26.3867 509.432 26.88C510.085 27.3733 510.885 27.62 511.832 27.62C513.152 27.62 514.112 27.1333 514.712 26.16L516.192 27C515.219 28.5067 513.752 29.26 511.792 29.26C510.205 29.26 508.912 28.7667 507.912 27.78C506.925 26.78 506.432 25.52 506.432 24C506.432 22.4933 506.919 21.24 507.892 20.24C508.865 19.24 510.125 18.74 511.672 18.74C513.139 18.74 514.332 19.26 515.252 20.3C516.185 21.3267 516.652 22.5667 516.652 24.02C516.652 24.2733 516.632 24.5333 516.592 24.8H508.212ZM511.672 20.38C510.739 20.38 509.965 20.6467 509.352 21.18C508.739 21.7 508.359 22.4 508.212 23.28H514.892C514.745 22.3333 514.372 21.6133 513.772 21.12C513.172 20.6267 512.472 20.38 511.672 20.38ZM523.632 18.74C524.805 18.74 525.745 19.1133 526.452 19.86C527.159 20.5933 527.512 21.5933 527.512 22.86V29H525.772V22.96C525.772 22.1467 525.552 21.52 525.112 21.08C524.672 20.6267 524.065 20.4 523.292 20.4C522.425 20.4 521.725 20.6733 521.192 21.22C520.659 21.7533 520.392 22.58 520.392 23.7V29H518.652V19H520.392V20.44C521.099 19.3067 522.179 18.74 523.632 18.74ZM531.161 24.8C531.334 25.6933 531.741 26.3867 532.381 26.88C533.034 27.3733 533.834 27.62 534.781 27.62C536.101 27.62 537.061 27.1333 537.661 26.16L539.141 27C538.168 28.5067 536.701 29.26 534.741 29.26C533.154 29.26 531.861 28.7667 530.861 27.78C529.874 26.78 529.381 25.52 529.381 24C529.381 22.4933 529.868 21.24 530.841 20.24C531.814 19.24 533.074 18.74 534.621 18.74C536.088 18.74 537.281 19.26 538.201 20.3C539.134 21.3267 539.601 22.5667 539.601 24.02C539.601 24.2733 539.581 24.5333 539.541 24.8H531.161ZM534.621 20.38C533.688 20.38 532.914 20.6467 532.301 21.18C531.688 21.7 531.308 22.4 531.161 23.28H537.841C537.694 22.3333 537.321 21.6133 536.721 21.12C536.121 20.6267 535.421 20.38 534.621 20.38ZM549.862 15H551.602V29H549.862V27.28C548.995 28.6 547.735 29.26 546.082 29.26C544.682 29.26 543.488 28.7533 542.502 27.74C541.515 26.7133 541.022 25.4667 541.022 24C541.022 22.5333 541.515 21.2933 542.502 20.28C543.488 19.2533 544.682 18.74 546.082 18.74C547.735 18.74 548.995 19.4 549.862 20.72V15ZM546.302 27.58C547.315 27.58 548.162 27.24 548.842 26.56C549.522 25.8667 549.862 25.0133 549.862 24C549.862 22.9867 549.522 22.14 548.842 21.46C548.162 20.7667 547.315 20.42 546.302 20.42C545.302 20.42 544.462 20.7667 543.782 21.46C543.102 22.14 542.762 22.9867 542.762 24C542.762 25.0133 543.102 25.8667 543.782 26.56C544.462 27.24 545.302 27.58 546.302 27.58ZM559.238 29V14.4H560.978V29H559.238ZM564.513 17.18C564.179 17.18 563.899 17.0667 563.673 16.84C563.446 16.6133 563.333 16.34 563.333 16.02C563.333 15.7 563.446 15.4267 563.673 15.2C563.899 14.96 564.179 14.84 564.513 14.84C564.833 14.84 565.106 14.96 565.333 15.2C565.559 15.4267 565.673 15.7 565.673 16.02C565.673 16.34 565.559 16.6133 565.333 16.84C565.106 17.0667 564.833 17.18 564.513 17.18ZM563.632 29V19H565.373V29H563.632ZM573.007 18.74C574.18 18.74 575.12 19.1133 575.827 19.86C576.534 20.5933 576.887 21.5933 576.887 22.86V29H575.147V22.96C575.147 22.1467 574.927 21.52 574.487 21.08C574.047 20.6267 573.44 20.4 572.667 20.4C571.8 20.4 571.1 20.6733 570.567 21.22C570.034 21.7533 569.767 22.58 569.767 23.7V29H568.027V19H569.767V20.44C570.474 19.3067 571.554 18.74 573.007 18.74ZM587.776 29H585.616L581.056 24.26V29H579.316V15H581.056V23.42L585.376 19H587.616L582.836 23.84L587.776 29ZM590.133 21.7C590.133 22.0867 590.326 22.4 590.713 22.64C591.099 22.8667 591.566 23.0533 592.113 23.2C592.659 23.3333 593.206 23.4933 593.753 23.68C594.299 23.8533 594.766 24.16 595.153 24.6C595.539 25.0267 595.733 25.58 595.733 26.26C595.733 27.1667 595.379 27.8933 594.673 28.44C593.979 28.9867 593.086 29.26 591.993 29.26C591.019 29.26 590.186 29.0467 589.493 28.62C588.799 28.1933 588.306 27.6267 588.013 26.92L589.513 26.06C589.673 26.54 589.973 26.92 590.413 27.2C590.853 27.48 591.379 27.62 591.993 27.62C592.566 27.62 593.039 27.5133 593.413 27.3C593.786 27.0733 593.973 26.7267 593.973 26.26C593.973 25.8733 593.779 25.5667 593.393 25.34C593.006 25.1 592.539 24.9133 591.993 24.78C591.446 24.6333 590.899 24.4667 590.353 24.28C589.806 24.0933 589.339 23.7867 588.953 23.36C588.566 22.9333 588.373 22.3867 588.373 21.72C588.373 20.8533 588.706 20.14 589.373 19.58C590.053 19.02 590.899 18.74 591.913 18.74C592.726 18.74 593.446 18.9267 594.073 19.3C594.713 19.66 595.193 20.1667 595.513 20.82L594.053 21.64C593.693 20.7867 592.979 20.36 591.913 20.36C591.419 20.36 590.999 20.48 590.653 20.72C590.306 20.9467 590.133 21.2733 590.133 21.7ZM608.313 18.74C609.713 18.74 610.906 19.2533 611.893 20.28C612.879 21.2933 613.373 22.5333 613.373 24C613.373 25.4667 612.879 26.7133 611.893 27.74C610.906 28.7533 609.713 29.26 608.313 29.26C606.659 29.26 605.399 28.6 604.533 27.28V33H602.793V19H604.533V20.72C605.399 19.4 606.659 18.74 608.313 18.74ZM608.093 27.58C609.093 27.58 609.933 27.24 610.613 26.56C611.293 25.8667 611.633 25.0133 611.633 24C611.633 22.9867 611.293 22.14 610.613 21.46C609.933 20.7667 609.093 20.42 608.093 20.42C607.079 20.42 606.233 20.7667 605.553 21.46C604.873 22.14 604.533 22.9867 604.533 24C604.533 25.0133 604.873 25.8667 605.553 26.56C606.233 27.24 607.079 27.58 608.093 27.58ZM617.189 20.68C617.762 19.44 618.802 18.82 620.309 18.82V20.64C619.456 20.6 618.722 20.8267 618.109 21.32C617.496 21.8133 617.189 22.6067 617.189 23.7V29H615.449V19H617.189V20.68ZM629.905 27.74C628.878 28.7533 627.631 29.26 626.165 29.26C624.698 29.26 623.451 28.7533 622.425 27.74C621.411 26.7267 620.905 25.48 620.905 24C620.905 22.52 621.411 21.2733 622.425 20.26C623.451 19.2467 624.698 18.74 626.165 18.74C627.631 18.74 628.878 19.2467 629.905 20.26C630.931 21.2733 631.445 22.52 631.445 24C631.445 25.48 630.931 26.7267 629.905 27.74ZM626.165 27.56C627.165 27.56 628.005 27.22 628.685 26.54C629.365 25.86 629.705 25.0133 629.705 24C629.705 22.9867 629.365 22.14 628.685 21.46C628.005 20.78 627.165 20.44 626.165 20.44C625.178 20.44 624.345 20.78 623.665 21.46C622.985 22.14 622.645 22.9867 622.645 24C622.645 25.0133 622.985 25.86 623.665 26.54C624.345 27.22 625.178 27.56 626.165 27.56ZM638.721 20.68H636.061V26.1C636.061 26.5933 636.154 26.9467 636.341 27.16C636.541 27.36 636.841 27.4667 637.241 27.48C637.641 27.48 638.134 27.4667 638.721 27.44V29C637.201 29.2 636.088 29.08 635.381 28.64C634.674 28.1867 634.321 27.34 634.321 26.1V20.68H632.341V19H634.321V16.72L636.061 16.2V19H638.721V20.68ZM641.493 24.8C641.666 25.6933 642.073 26.3867 642.713 26.88C643.366 27.3733 644.166 27.62 645.113 27.62C646.433 27.62 647.393 27.1333 647.993 26.16L649.473 27C648.5 28.5067 647.033 29.26 645.073 29.26C643.486 29.26 642.193 28.7667 641.193 27.78C640.206 26.78 639.713 25.52 639.713 24C639.713 22.4933 640.2 21.24 641.173 20.24C642.146 19.24 643.406 18.74 644.953 18.74C646.42 18.74 647.613 19.26 648.533 20.3C649.466 21.3267 649.933 22.5667 649.933 24.02C649.933 24.2733 649.913 24.5333 649.873 24.8H641.493ZM644.953 20.38C644.02 20.38 643.246 20.6467 642.633 21.18C642.02 21.7 641.64 22.4 641.493 23.28H648.173C648.026 22.3333 647.653 21.6133 647.053 21.12C646.453 20.6267 645.753 20.38 644.953 20.38ZM656.614 29.26C655.107 29.26 653.854 28.76 652.854 27.76C651.854 26.7467 651.354 25.4933 651.354 24C651.354 22.5067 651.854 21.26 652.854 20.26C653.854 19.2467 655.107 18.74 656.614 18.74C657.6 18.74 658.487 18.98 659.274 19.46C660.06 19.9267 660.647 20.56 661.034 21.36L659.574 22.2C659.32 21.6667 658.927 21.24 658.394 20.92C657.874 20.6 657.28 20.44 656.614 20.44C655.614 20.44 654.774 20.78 654.094 21.46C653.427 22.14 653.094 22.9867 653.094 24C653.094 25 653.427 25.84 654.094 26.52C654.774 27.2 655.614 27.54 656.614 27.54C657.28 27.54 657.88 27.3867 658.414 27.08C658.947 26.76 659.354 26.3333 659.634 25.8L661.114 26.66C660.687 27.4467 660.074 28.08 659.274 28.56C658.474 29.0267 657.587 29.26 656.614 29.26ZM668.272 20.68H665.612V26.1C665.612 26.5933 665.705 26.9467 665.892 27.16C666.092 27.36 666.392 27.4667 666.792 27.48C667.192 27.48 667.685 27.4667 668.272 27.44V29C666.752 29.2 665.638 29.08 664.932 28.64C664.225 28.1867 663.872 27.34 663.872 26.1V20.68H661.892V19H663.872V16.72L665.612 16.2V19H668.272V20.68ZM671.044 24.8C671.217 25.6933 671.624 26.3867 672.264 26.88C672.917 27.3733 673.717 27.62 674.664 27.62C675.984 27.62 676.944 27.1333 677.544 26.16L679.024 27C678.051 28.5067 676.584 29.26 674.624 29.26C673.037 29.26 671.744 28.7667 670.744 27.78C669.757 26.78 669.264 25.52 669.264 24C669.264 22.4933 669.751 21.24 670.724 20.24C671.697 19.24 672.957 18.74 674.504 18.74C675.971 18.74 677.164 19.26 678.084 20.3C679.017 21.3267 679.484 22.5667 679.484 24.02C679.484 24.2733 679.464 24.5333 679.424 24.8H671.044ZM674.504 20.38C673.571 20.38 672.797 20.6467 672.184 21.18C671.571 21.7 671.191 22.4 671.044 23.28H677.724C677.577 22.3333 677.204 21.6133 676.604 21.12C676.004 20.6267 675.304 20.38 674.504 20.38ZM689.745 15H691.485V29H689.745V27.28C688.878 28.6 687.618 29.26 685.965 29.26C684.565 29.26 683.371 28.7533 682.385 27.74C681.398 26.7133 680.905 25.4667 680.905 24C680.905 22.5333 681.398 21.2933 682.385 20.28C683.371 19.2533 684.565 18.74 685.965 18.74C687.618 18.74 688.878 19.4 689.745 20.72V15ZM686.185 27.58C687.198 27.58 688.045 27.24 688.725 26.56C689.405 25.8667 689.745 25.0133 689.745 24C689.745 22.9867 689.405 22.14 688.725 21.46C688.045 20.7667 687.198 20.42 686.185 20.42C685.185 20.42 684.345 20.7667 683.665 21.46C682.985 22.14 682.645 22.9867 682.645 24C682.645 25.0133 682.985 25.8667 683.665 26.56C684.345 27.24 685.185 27.58 686.185 27.58ZM11.6 51H13.34V61H11.6V59.28C10.7333 60.6 9.47333 61.26 7.82 61.26C6.42 61.26 5.22667 60.7533 4.24 59.74C3.25333 58.7133 2.76 57.4667 2.76 56C2.76 54.5333 3.25333 53.2933 4.24 52.28C5.22667 51.2533 6.42 50.74 7.82 50.74C9.47333 50.74 10.7333 51.4 11.6 52.72V51ZM8.04 59.58C9.05333 59.58 9.9 59.24 10.58 58.56C11.26 57.8667 11.6 57.0133 11.6 56C11.6 54.9867 11.26 54.14 10.58 53.46C9.9 52.7667 9.05333 52.42 8.04 52.42C7.04 52.42 6.2 52.7667 5.52 53.46C4.84 54.14 4.5 54.9867 4.5 56C4.5 57.0133 4.84 57.8667 5.52 58.56C6.2 59.24 7.04 59.58 8.04 59.58ZM24.2763 51H25.9963V60.58C25.9963 62.06 25.4963 63.2067 24.4963 64.02C23.4963 64.8467 22.2963 65.26 20.8963 65.26C19.7763 65.26 18.8096 65.0467 17.9963 64.62C17.1829 64.2067 16.5696 63.6067 16.1563 62.82L17.6763 61.96C18.2229 63.08 19.3096 63.64 20.9363 63.64C21.9763 63.64 22.7896 63.3667 23.3763 62.82C23.9763 62.2733 24.2763 61.5267 24.2763 60.58V59.16C23.3963 60.4933 22.1429 61.16 20.5163 61.16C19.0896 61.16 17.8829 60.6533 16.8963 59.64C15.9096 58.6267 15.4163 57.3933 15.4163 55.94C15.4163 54.4867 15.9096 53.26 16.8963 52.26C17.8829 51.2467 19.0896 50.74 20.5163 50.74C22.1563 50.74 23.4096 51.4 24.2763 52.72V51ZM18.1763 58.48C18.8563 59.16 19.7029 59.5 20.7163 59.5C21.7296 59.5 22.5763 59.16 23.2563 58.48C23.9363 57.8 24.2763 56.9533 24.2763 55.94C24.2763 54.94 23.9363 54.1 23.2563 53.42C22.5763 52.74 21.7296 52.4 20.7163 52.4C19.7029 52.4 18.8563 52.74 18.1763 53.42C17.4963 54.1 17.1562 54.94 17.1562 55.94C17.1562 56.9533 17.4963 57.8 18.1763 58.48ZM36.9125 51H38.6525V61H36.9125V59.28C36.0458 60.6 34.7858 61.26 33.1325 61.26C31.7325 61.26 30.5392 60.7533 29.5525 59.74C28.5658 58.7133 28.0725 57.4667 28.0725 56C28.0725 54.5333 28.5658 53.2933 29.5525 52.28C30.5392 51.2533 31.7325 50.74 33.1325 50.74C34.7858 50.74 36.0458 51.4 36.9125 52.72V51ZM33.3525 59.58C34.3658 59.58 35.2125 59.24 35.8925 58.56C36.5725 57.8667 36.9125 57.0133 36.9125 56C36.9125 54.9867 36.5725 54.14 35.8925 53.46C35.2125 52.7667 34.3658 52.42 33.3525 52.42C32.3525 52.42 31.5125 52.7667 30.8325 53.46C30.1525 54.14 29.8125 54.9867 29.8125 56C29.8125 57.0133 30.1525 57.8667 30.8325 58.56C31.5125 59.24 32.3525 59.58 33.3525 59.58ZM42.1688 49.18C41.8354 49.18 41.5554 49.0667 41.3288 48.84C41.1021 48.6133 40.9888 48.34 40.9888 48.02C40.9888 47.7 41.1021 47.4267 41.3288 47.2C41.5554 46.96 41.8354 46.84 42.1688 46.84C42.4888 46.84 42.7621 46.96 42.9888 47.2C43.2154 47.4267 43.3288 47.7 43.3288 48.02C43.3288 48.34 43.2154 48.6133 42.9888 48.84C42.7621 49.0667 42.4888 49.18 42.1688 49.18ZM41.2887 61V51H43.0288V61H41.2887ZM50.6633 50.74C51.8366 50.74 52.7766 51.1133 53.4833 51.86C54.1899 52.5933 54.5433 53.5933 54.5433 54.86V61H52.8033V54.96C52.8033 54.1467 52.5833 53.52 52.1433 53.08C51.7033 52.6267 51.0966 52.4 50.3233 52.4C49.4566 52.4 48.7566 52.6733 48.2233 53.22C47.6899 53.7533 47.4233 54.58 47.4233 55.7V61H45.6833V51H47.4233V52.44C48.1299 51.3067 49.2099 50.74 50.6633 50.74ZM58.4723 53.7C58.4723 54.0867 58.6657 54.4 59.0523 54.64C59.439 54.8667 59.9057 55.0533 60.4523 55.2C60.999 55.3333 61.5457 55.4933 62.0923 55.68C62.639 55.8533 63.1057 56.16 63.4923 56.6C63.879 57.0267 64.0723 57.58 64.0723 58.26C64.0723 59.1667 63.719 59.8933 63.0123 60.44C62.319 60.9867 61.4257 61.26 60.3323 61.26C59.359 61.26 58.5257 61.0467 57.8323 60.62C57.139 60.1933 56.6457 59.6267 56.3523 58.92L57.8523 58.06C58.0123 58.54 58.3123 58.92 58.7523 59.2C59.1923 59.48 59.719 59.62 60.3323 59.62C60.9057 59.62 61.379 59.5133 61.7523 59.3C62.1257 59.0733 62.3123 58.7267 62.3123 58.26C62.3123 57.8733 62.119 57.5667 61.7323 57.34C61.3457 57.1 60.879 56.9133 60.3323 56.78C59.7857 56.6333 59.239 56.4667 58.6923 56.28C58.1457 56.0933 57.679 55.7867 57.2923 55.36C56.9057 54.9333 56.7123 54.3867 56.7123 53.72C56.7123 52.8533 57.0457 52.14 57.7123 51.58C58.3923 51.02 59.239 50.74 60.2523 50.74C61.0657 50.74 61.7857 50.9267 62.4123 51.3C63.0523 51.66 63.5323 52.1667 63.8523 52.82L62.3923 53.64C62.0323 52.7867 61.319 52.36 60.2523 52.36C59.759 52.36 59.339 52.48 58.9923 52.72C58.6457 52.9467 58.4723 53.2733 58.4723 53.7ZM71.1819 52.68H68.5219V58.1C68.5219 58.5933 68.6152 58.9467 68.8019 59.16C69.0019 59.36 69.3019 59.4667 69.7019 59.48C70.1019 59.48 70.5952 59.4667 71.1819 59.44V61C69.6619 61.2 68.5485 61.08 67.8419 60.64C67.1352 60.1867 66.7819 59.34 66.7819 58.1V52.68H64.8019V51H66.7819V48.72L68.5219 48.2V51H71.1819V52.68ZM79.8005 53.7C79.8005 54.0867 79.9938 54.4 80.3805 54.64C80.7671 54.8667 81.2338 55.0533 81.7805 55.2C82.3271 55.3333 82.8738 55.4933 83.4205 55.68C83.9671 55.8533 84.4338 56.16 84.8205 56.6C85.2071 57.0267 85.4005 57.58 85.4005 58.26C85.4005 59.1667 85.0471 59.8933 84.3405 60.44C83.6471 60.9867 82.7538 61.26 81.6605 61.26C80.6871 61.26 79.8538 61.0467 79.1605 60.62C78.4671 60.1933 77.9738 59.6267 77.6805 58.92L79.1805 58.06C79.3405 58.54 79.6405 58.92 80.0805 59.2C80.5205 59.48 81.0471 59.62 81.6605 59.62C82.2338 59.62 82.7071 59.5133 83.0805 59.3C83.4538 59.0733 83.6405 58.7267 83.6405 58.26C83.6405 57.8733 83.4471 57.5667 83.0605 57.34C82.6738 57.1 82.2071 56.9133 81.6605 56.78C81.1138 56.6333 80.5671 56.4667 80.0205 56.28C79.4738 56.0933 79.0071 55.7867 78.6205 55.36C78.2338 54.9333 78.0405 54.3867 78.0405 53.72C78.0405 52.8533 78.3738 52.14 79.0405 51.58C79.7205 51.02 80.5671 50.74 81.5805 50.74C82.3938 50.74 83.1138 50.9267 83.7405 51.3C84.3805 51.66 84.8605 52.1667 85.1805 52.82L83.7205 53.64C83.3605 52.7867 82.6471 52.36 81.5805 52.36C81.0871 52.36 80.6671 52.48 80.3205 52.72C79.9738 52.9467 79.8005 53.2733 79.8005 53.7ZM92.9806 50.74C94.3806 50.74 95.574 51.2533 96.5606 52.28C97.5473 53.2933 98.0406 54.5333 98.0406 56C98.0406 57.4667 97.5473 58.7133 96.5606 59.74C95.574 60.7533 94.3806 61.26 92.9806 61.26C91.3273 61.26 90.0673 60.6 89.2006 59.28V65H87.4606V51H89.2006V52.72C90.0673 51.4 91.3273 50.74 92.9806 50.74ZM92.7606 59.58C93.7606 59.58 94.6006 59.24 95.2806 58.56C95.9606 57.8667 96.3006 57.0133 96.3006 56C96.3006 54.9867 95.9606 54.14 95.2806 53.46C94.6006 52.7667 93.7606 52.42 92.7606 52.42C91.7473 52.42 90.9006 52.7667 90.2206 53.46C89.5406 54.14 89.2006 54.9867 89.2006 56C89.2006 57.0133 89.5406 57.8667 90.2206 58.56C90.9006 59.24 91.7473 59.58 92.7606 59.58ZM108.397 51H110.137V61H108.397V59.28C107.53 60.6 106.27 61.26 104.617 61.26C103.217 61.26 102.024 60.7533 101.037 59.74C100.05 58.7133 99.5569 57.4667 99.5569 56C99.5569 54.5333 100.05 53.2933 101.037 52.28C102.024 51.2533 103.217 50.74 104.617 50.74C106.27 50.74 107.53 51.4 108.397 52.72V51ZM104.837 59.58C105.85 59.58 106.697 59.24 107.377 58.56C108.057 57.8667 108.397 57.0133 108.397 56C108.397 54.9867 108.057 54.14 107.377 53.46C106.697 52.7667 105.85 52.42 104.837 52.42C103.837 52.42 102.997 52.7667 102.317 53.46C101.637 54.14 101.297 54.9867 101.297 56C101.297 57.0133 101.637 57.8667 102.317 58.56C102.997 59.24 103.837 59.58 104.837 59.58ZM123.573 50.74C124.693 50.74 125.6 51.1067 126.293 51.84C126.986 52.56 127.333 53.54 127.333 54.78V61H125.593V54.84C125.593 54.0667 125.393 53.4667 124.993 53.04C124.593 52.6133 124.06 52.4 123.393 52.4C122.646 52.4 122.046 52.6533 121.593 53.16C121.153 53.6533 120.933 54.4133 120.933 55.44V61H119.193V54.84C119.193 54.0667 119 53.4667 118.613 53.04C118.24 52.6133 117.726 52.4 117.073 52.4C116.34 52.4 115.726 52.6533 115.233 53.16C114.753 53.6667 114.513 54.4267 114.513 55.44V61H112.773V51H114.513V52.34C115.193 51.2733 116.186 50.74 117.493 50.74C118.84 50.74 119.82 51.3067 120.433 52.44C121.126 51.3067 122.173 50.74 123.573 50.74ZM143.186 59.74C142.159 60.7533 140.912 61.26 139.446 61.26C137.979 61.26 136.732 60.7533 135.706 59.74C134.692 58.7267 134.186 57.48 134.186 56C134.186 54.52 134.692 53.2733 135.706 52.26C136.732 51.2467 137.979 50.74 139.446 50.74C140.912 50.74 142.159 51.2467 143.186 52.26C144.212 53.2733 144.726 54.52 144.726 56C144.726 57.48 144.212 58.7267 143.186 59.74ZM139.446 59.56C140.446 59.56 141.286 59.22 141.966 58.54C142.646 57.86 142.986 57.0133 142.986 56C142.986 54.9867 142.646 54.14 141.966 53.46C141.286 52.78 140.446 52.44 139.446 52.44C138.459 52.44 137.626 52.78 136.946 53.46C136.266 54.14 135.926 54.9867 135.926 56C135.926 57.0133 136.266 57.86 136.946 58.54C137.626 59.22 138.459 59.56 139.446 59.56ZM148.517 52.68C149.09 51.44 150.13 50.82 151.637 50.82V52.64C150.784 52.6 150.05 52.8267 149.437 53.32C148.824 53.8133 148.517 54.6067 148.517 55.7V61H146.777V51H148.517V52.68ZM169.14 50.74C170.26 50.74 171.166 51.1067 171.86 51.84C172.553 52.56 172.9 53.54 172.9 54.78V61H171.16V54.84C171.16 54.0667 170.96 53.4667 170.56 53.04C170.16 52.6133 169.626 52.4 168.96 52.4C168.213 52.4 167.613 52.6533 167.16 53.16C166.72 53.6533 166.5 54.4133 166.5 55.44V61H164.76V54.84C164.76 54.0667 164.566 53.4667 164.18 53.04C163.806 52.6133 163.293 52.4 162.64 52.4C161.906 52.4 161.293 52.6533 160.8 53.16C160.32 53.6667 160.08 54.4267 160.08 55.44V61H158.34V51H160.08V52.34C160.76 51.2733 161.753 50.74 163.06 50.74C164.406 50.74 165.386 51.3067 166 52.44C166.693 51.3067 167.74 50.74 169.14 50.74ZM183.592 51H185.332V61H183.592V59.28C182.726 60.6 181.466 61.26 179.812 61.26C178.412 61.26 177.219 60.7533 176.232 59.74C175.246 58.7133 174.752 57.4667 174.752 56C174.752 54.5333 175.246 53.2933 176.232 52.28C177.219 51.2533 178.412 50.74 179.812 50.74C181.466 50.74 182.726 51.4 183.592 52.72V51ZM180.032 59.58C181.046 59.58 181.892 59.24 182.572 58.56C183.252 57.8667 183.592 57.0133 183.592 56C183.592 54.9867 183.252 54.14 182.572 53.46C181.892 52.7667 181.046 52.42 180.032 52.42C179.032 52.42 178.192 52.7667 177.512 53.46C176.832 54.14 176.492 54.9867 176.492 56C176.492 57.0133 176.832 57.8667 177.512 58.56C178.192 59.24 179.032 59.58 180.032 59.58ZM187.968 61V46.4H189.708V61H187.968ZM193.243 49.18C192.91 49.18 192.63 49.0667 192.403 48.84C192.176 48.6133 192.063 48.34 192.063 48.02C192.063 47.7 192.176 47.4267 192.403 47.2C192.63 46.96 192.91 46.84 193.243 46.84C193.563 46.84 193.836 46.96 194.063 47.2C194.29 47.4267 194.403 47.7 194.403 48.02C194.403 48.34 194.29 48.6133 194.063 48.84C193.836 49.0667 193.563 49.18 193.243 49.18ZM192.363 61V51H194.103V61H192.363ZM201.458 61.26C199.951 61.26 198.698 60.76 197.698 59.76C196.698 58.7467 196.198 57.4933 196.198 56C196.198 54.5067 196.698 53.26 197.698 52.26C198.698 51.2467 199.951 50.74 201.458 50.74C202.444 50.74 203.331 50.98 204.118 51.46C204.904 51.9267 205.491 52.56 205.878 53.36L204.418 54.2C204.164 53.6667 203.771 53.24 203.238 52.92C202.718 52.6 202.124 52.44 201.458 52.44C200.458 52.44 199.618 52.78 198.938 53.46C198.271 54.14 197.938 54.9867 197.938 56C197.938 57 198.271 57.84 198.938 58.52C199.618 59.2 200.458 59.54 201.458 59.54C202.124 59.54 202.724 59.3867 203.258 59.08C203.791 58.76 204.198 58.3333 204.478 57.8L205.958 58.66C205.531 59.4467 204.918 60.08 204.118 60.56C203.318 61.0267 202.431 61.26 201.458 61.26ZM208.555 49.18C208.222 49.18 207.942 49.0667 207.715 48.84C207.489 48.6133 207.375 48.34 207.375 48.02C207.375 47.7 207.489 47.4267 207.715 47.2C207.942 46.96 208.222 46.84 208.555 46.84C208.875 46.84 209.149 46.96 209.375 47.2C209.602 47.4267 209.715 47.7 209.715 48.02C209.715 48.34 209.602 48.6133 209.375 48.84C209.149 49.0667 208.875 49.18 208.555 49.18ZM207.675 61V51H209.415V61H207.675ZM220.51 59.74C219.483 60.7533 218.237 61.26 216.77 61.26C215.303 61.26 214.057 60.7533 213.03 59.74C212.017 58.7267 211.51 57.48 211.51 56C211.51 54.52 212.017 53.2733 213.03 52.26C214.057 51.2467 215.303 50.74 216.77 50.74C218.237 50.74 219.483 51.2467 220.51 52.26C221.537 53.2733 222.05 54.52 222.05 56C222.05 57.48 221.537 58.7267 220.51 59.74ZM216.77 59.56C217.77 59.56 218.61 59.22 219.29 58.54C219.97 57.86 220.31 57.0133 220.31 56C220.31 54.9867 219.97 54.14 219.29 53.46C218.61 52.78 217.77 52.44 216.77 52.44C215.783 52.44 214.95 52.78 214.27 53.46C213.59 54.14 213.25 54.9867 213.25 56C213.25 57.0133 213.59 57.86 214.27 58.54C214.95 59.22 215.783 59.56 216.77 59.56ZM231.001 51H232.741V61H231.001V59.56C230.295 60.6933 229.215 61.26 227.761 61.26C226.588 61.26 225.648 60.8933 224.941 60.16C224.235 59.4133 223.881 58.4067 223.881 57.14V51H225.621V57.04C225.621 57.8533 225.841 58.4867 226.281 58.94C226.721 59.38 227.328 59.6 228.101 59.6C228.968 59.6 229.668 59.3333 230.201 58.8C230.735 58.2533 231.001 57.42 231.001 56.3V51ZM236.871 53.7C236.871 54.0867 237.064 54.4 237.451 54.64C237.837 54.8667 238.304 55.0533 238.851 55.2C239.397 55.3333 239.944 55.4933 240.491 55.68C241.037 55.8533 241.504 56.16 241.891 56.6C242.277 57.0267 242.471 57.58 242.471 58.26C242.471 59.1667 242.117 59.8933 241.411 60.44C240.717 60.9867 239.824 61.26 238.731 61.26C237.757 61.26 236.924 61.0467 236.231 60.62C235.537 60.1933 235.044 59.6267 234.751 58.92L236.251 58.06C236.411 58.54 236.711 58.92 237.151 59.2C237.591 59.48 238.117 59.62 238.731 59.62C239.304 59.62 239.777 59.5133 240.151 59.3C240.524 59.0733 240.711 58.7267 240.711 58.26C240.711 57.8733 240.517 57.5667 240.131 57.34C239.744 57.1 239.277 56.9133 238.731 56.78C238.184 56.6333 237.637 56.4667 237.091 56.28C236.544 56.0933 236.077 55.7867 235.691 55.36C235.304 54.9333 235.111 54.3867 235.111 53.72C235.111 52.8533 235.444 52.14 236.111 51.58C236.791 51.02 237.637 50.74 238.651 50.74C239.464 50.74 240.184 50.9267 240.811 51.3C241.451 51.66 241.931 52.1667 242.251 52.82L240.791 53.64C240.431 52.7867 239.717 52.36 238.651 52.36C238.157 52.36 237.737 52.48 237.391 52.72C237.044 52.9467 236.871 53.2733 236.871 53.7ZM257.811 51H259.551V61H257.811V59.28C256.944 60.6 255.684 61.26 254.031 61.26C252.631 61.26 251.438 60.7533 250.451 59.74C249.464 58.7133 248.971 57.4667 248.971 56C248.971 54.5333 249.464 53.2933 250.451 52.28C251.438 51.2533 252.631 50.74 254.031 50.74C255.684 50.74 256.944 51.4 257.811 52.72V51ZM254.251 59.58C255.264 59.58 256.111 59.24 256.791 58.56C257.471 57.8667 257.811 57.0133 257.811 56C257.811 54.9867 257.471 54.14 256.791 53.46C256.111 52.7667 255.264 52.42 254.251 52.42C253.251 52.42 252.411 52.7667 251.731 53.46C251.051 54.14 250.711 54.9867 250.711 56C250.711 57.0133 251.051 57.8667 251.731 58.56C252.411 59.24 253.251 59.58 254.251 59.58ZM266.887 61.26C265.381 61.26 264.127 60.76 263.127 59.76C262.127 58.7467 261.627 57.4933 261.627 56C261.627 54.5067 262.127 53.26 263.127 52.26C264.127 51.2467 265.381 50.74 266.887 50.74C267.874 50.74 268.761 50.98 269.547 51.46C270.334 51.9267 270.921 52.56 271.307 53.36L269.847 54.2C269.594 53.6667 269.201 53.24 268.667 52.92C268.147 52.6 267.554 52.44 266.887 52.44C265.887 52.44 265.047 52.78 264.367 53.46C263.701 54.14 263.367 54.9867 263.367 56C263.367 57 263.701 57.84 264.367 58.52C265.047 59.2 265.887 59.54 266.887 59.54C267.554 59.54 268.154 59.3867 268.687 59.08C269.221 58.76 269.627 58.3333 269.907 57.8L271.387 58.66C270.961 59.4467 270.347 60.08 269.547 60.56C268.747 61.0267 267.861 61.26 266.887 61.26ZM278.545 52.68H275.885V58.1C275.885 58.5933 275.978 58.9467 276.165 59.16C276.365 59.36 276.665 59.4667 277.065 59.48C277.465 59.48 277.958 59.4667 278.545 59.44V61C277.025 61.2 275.912 61.08 275.205 60.64C274.498 60.1867 274.145 59.34 274.145 58.1V52.68H272.165V51H274.145V48.72L275.885 48.2V51H278.545V52.68ZM281.485 49.18C281.152 49.18 280.872 49.0667 280.645 48.84C280.418 48.6133 280.305 48.34 280.305 48.02C280.305 47.7 280.418 47.4267 280.645 47.2C280.872 46.96 281.152 46.84 281.485 46.84C281.805 46.84 282.078 46.96 282.305 47.2C282.532 47.4267 282.645 47.7 282.645 48.02C282.645 48.34 282.532 48.6133 282.305 48.84C282.078 49.0667 281.805 49.18 281.485 49.18ZM280.605 61V51H282.345V61H280.605ZM292 51H293.88L289.88 61H287.84L283.84 51H285.72L288.86 59.14L292 51ZM296.231 49.18C295.898 49.18 295.618 49.0667 295.391 48.84C295.165 48.6133 295.051 48.34 295.051 48.02C295.051 47.7 295.165 47.4267 295.391 47.2C295.618 46.96 295.898 46.84 296.231 46.84C296.551 46.84 296.825 46.96 297.051 47.2C297.278 47.4267 297.391 47.7 297.391 48.02C297.391 48.34 297.278 48.6133 297.051 48.84C296.825 49.0667 296.551 49.18 296.231 49.18ZM295.351 61V51H297.091V61H295.351ZM305.186 52.68H302.526V58.1C302.526 58.5933 302.619 58.9467 302.806 59.16C303.006 59.36 303.306 59.4667 303.706 59.48C304.106 59.48 304.599 59.4667 305.186 59.44V61C303.666 61.2 302.552 61.08 301.846 60.64C301.139 60.1867 300.786 59.34 300.786 58.1V52.68H298.806V51H300.786V48.72L302.526 48.2V51H305.186V52.68ZM314.441 51H316.301L312.221 61.62C311.794 62.7533 311.194 63.6133 310.421 64.2C309.661 64.8 308.781 65.0667 307.781 65V63.38C309.007 63.4733 309.907 62.7933 310.481 61.34L310.661 60.96L306.301 51H308.161L311.561 58.84L314.441 51ZM320.319 56.9C320.319 56.3133 320.445 55.7667 320.699 55.26C320.952 54.7533 321.259 54.32 321.619 53.96C321.979 53.6 322.339 53.26 322.699 52.94C323.059 52.6067 323.365 52.2467 323.619 51.86C323.872 51.46 323.999 51.04 323.999 50.6C323.999 49.9333 323.765 49.4267 323.299 49.08C322.845 48.72 322.252 48.54 321.519 48.54C320.052 48.54 319.112 49.1867 318.699 50.48L317.119 49.6C317.452 48.6667 318.019 47.96 318.819 47.48C319.619 46.9867 320.525 46.74 321.539 46.74C322.725 46.74 323.739 47.0733 324.579 47.74C325.432 48.4067 325.859 49.3333 325.859 50.52C325.859 51.08 325.732 51.6067 325.479 52.1C325.225 52.5933 324.919 53.02 324.559 53.38C324.199 53.74 323.839 54.0933 323.479 54.44C323.119 54.7733 322.812 55.1533 322.559 55.58C322.305 55.9933 322.179 56.4333 322.179 56.9H320.319ZM321.239 61.22C320.879 61.22 320.572 61.0933 320.319 60.84C320.065 60.5867 319.939 60.28 319.939 59.92C319.939 59.56 320.065 59.2533 320.319 59C320.572 58.7467 320.879 58.62 321.239 58.62C321.612 58.62 321.919 58.7467 322.159 59C322.412 59.2533 322.539 59.56 322.539 59.92C322.539 60.28 322.412 60.5867 322.159 60.84C321.919 61.0933 321.612 61.22 321.239 61.22Z" fill="#141414"/>
<path d="M778 28V42" stroke="#141414" stroke-width="2" stroke-linecap="round" stroke-linejoin="round"/>
<path d="M771 35H785" stroke="#141414" stroke-width="2" stroke-linecap="round" stroke-linejoin="round"/>
</svg>
